<svg xmlns="http://www.w3.org/2000/svg" version="1.1" xmlns:xlink="http://www.w3.org/1999/xlink" xmlns:svgjs="http://svgjs.dev/svgjs" width="2000" height="1999" viewBox="0 0 2000 1999"><g transform="matrix(1,0,0,1,-0.431486880466764,-0.4312711370263287)"><svg viewBox="0 0 343 343" data-background-color="#091f5b" preserveAspectRatio="xMidYMid meet" height="1999" width="2000" xmlns="http://www.w3.org/2000/svg" xmlns:xlink="http://www.w3.org/1999/xlink"><g id="tight-bounds" transform="matrix(1,0,0,1,0.0740000000000407,0.07400000000001228)"><svg viewBox="0 0 342.85155851775386 342.85155851775386" height="342.85155851775386" width="342.85155851775386"><g><svg></svg></g><g><svg viewBox="0 0 342.85155851775386 342.85155851775386" height="342.85155851775386" width="342.85155851775386"><g><path d="M0 171.426c0-94.676 76.75-171.426 171.426-171.426 94.676 0 171.426 76.75 171.426 171.426 0 94.676-76.75 171.426-171.426 171.426-94.676 0-171.426-76.75-171.426-171.426zM171.426 339.998c93.1 0 168.572-75.472 168.572-168.572 0-93.1-75.472-168.572-168.572-168.572-93.1 0-168.572 75.472-168.572 168.572 0 93.1 75.472 168.572 168.572 168.572z" data-fill-palette-color="tertiary" fill="#000000" stroke="transparent"></path><ellipse rx="164.56874808852186" ry="164.56874808852186" cx="171.42577925887693" cy="171.42577925887693" fill="#000000" stroke="transparent" stroke-width="0" fill-opacity="1" data-fill-palette-color="tertiary"></ellipse></g><g transform="matrix(1,0,0,1,64.84655864529837,130.00110554030783)"><svg viewBox="0 0 213.1584412271571 82.84934743713818" height="82.84934743713818" width="213.1584412271571"><g><svg viewBox="0 0 213.1584412271571 82.84934743713818" height="82.84934743713818" width="213.1584412271571"><g><svg viewBox="0 0 213.1584412271571 82.84934743713818" height="82.84934743713818" width="213.1584412271571"><g transform="matrix(1,0,0,1,0,51.20422046712731)"><svg viewBox="0 0 213.1584412271571 31.645126970010867" height="31.645126970010867" width="213.1584412271571"><g id="textblocktransform"><svg viewBox="0 0 213.1584412271571 31.645126970010867" height="31.645126970010867" width="213.1584412271571" id="textblock"><g><svg viewBox="0 0 213.1584412271571 31.645126970010867" height="31.645126970010867" width="213.1584412271571"><g transform="matrix(1,0,0,1,0,0)"><svg width="213.1584412271571" viewBox="4 -35.01 239.09 35.5" height="31.645126970010867" data-palette-color="#091f5b"><path d="M23.71-8.59L23.71-8.59Q23.71-6.81 23.03-5.25 22.36-3.69 21.19-2.51 20.02-1.34 18.44-0.67 16.87 0 15.09 0L15.09 0 4 0 4-35.01 15.09-35.01Q16.87-35.01 18.44-34.34 20.02-33.67 21.19-32.5 22.36-31.32 23.03-29.75 23.71-28.17 23.71-26.39L23.71-26.39 23.71-26.05Q23.71-24.8 23.38-23.67 23.05-22.53 22.44-21.56 21.83-20.58 21-19.79 20.17-18.99 19.14-18.46L19.14-18.46Q20.17-17.92 21-17.13 21.83-16.33 22.44-15.34 23.05-14.36 23.38-13.22 23.71-12.08 23.71-10.84L23.71-10.84 23.71-8.59ZM20.56-8.59L20.56-11.35Q20.56-12.52 20.12-13.54 19.68-14.55 18.91-15.31 18.14-16.06 17.13-16.5 16.11-16.94 14.94-16.94L14.94-16.94 7.15-16.94 7.15-3 14.94-3Q16.11-3 17.13-3.44 18.14-3.88 18.91-4.64 19.68-5.4 20.12-6.41 20.56-7.42 20.56-8.59L20.56-8.59ZM20.56-25.56L20.56-26.39Q20.56-27.56 20.12-28.58 19.68-29.59 18.91-30.36 18.14-31.13 17.13-31.57 16.11-32.01 14.94-32.01L14.94-32.01 7.15-32.01 7.15-19.95 14.94-19.95Q16.11-19.95 17.13-20.39 18.14-20.83 18.91-21.59 19.68-22.36 20.12-23.38 20.56-24.39 20.56-25.56L20.56-25.56ZM45.41 0L42.4 0 42.4-18.31Q42.4-19.21 42.06-20.01 41.72-20.8 41.14-21.39 40.55-21.97 39.76-22.31 38.96-22.66 38.06-22.66L38.06-22.66 36.06-22.66Q35.15-22.66 34.36-22.31 33.57-21.97 32.98-21.39 32.39-20.8 32.05-20.01 31.71-19.21 31.71-18.31L31.71-18.31 31.71 0 28.71 0 28.71-35.01 31.71-35.01 31.71-22.9Q32.74-24.12 34.18-24.8 35.62-25.49 37.3-25.49L37.3-25.49 38.06-25.49Q39.57-25.49 40.92-24.91 42.26-24.34 43.26-23.34 44.26-22.34 44.83-21 45.41-19.65 45.41-18.14L45.41-18.14 45.41 0ZM68.11 0L67.11 0 65.45-2.49Q64.42-1.15 62.89-0.33 61.35 0.49 59.52 0.49L59.52 0.49 58.76 0.49Q57.25 0.49 55.9-0.09 54.56-0.66 53.56-1.66 52.56-2.66 51.98-4 51.41-5.35 51.41-6.86L51.41-6.86 51.41-7.1Q51.41-8.62 51.98-9.96 52.56-11.3 53.56-12.3 54.56-13.31 55.9-13.88 57.25-14.45 58.76-14.45L58.76-14.45 65.11-14.45 65.11-18.31Q65.11-19.21 64.77-20.01 64.42-20.8 63.84-21.39 63.25-21.97 62.46-22.31 61.66-22.66 60.76-22.66L60.76-22.66 59-22.66Q58.1-22.66 57.31-22.31 56.51-21.97 55.93-21.39 55.34-20.8 55-20.01 54.66-19.21 54.66-18.31L54.66-18.31 54.66-17.41 51.66-17.9 51.66-18.14Q51.66-19.65 52.23-21 52.8-22.34 53.8-23.34 54.8-24.34 56.15-24.91 57.49-25.49 59-25.49L59-25.49 60.76-25.49Q62.28-25.49 63.62-24.91 64.96-24.34 65.96-23.34 66.96-22.34 67.54-21 68.11-19.65 68.11-18.14L68.11-18.14 68.11 0ZM65.11-6.69L65.11-12.11 58.76-12.11Q57.86-12.11 57.06-11.77 56.27-11.43 55.68-10.83 55.1-10.23 54.76-9.44 54.41-8.64 54.41-7.74L54.41-7.74 54.41-6.69Q54.41-5.79 54.76-4.99 55.1-4.2 55.68-3.61 56.27-3.03 57.06-2.69 57.86-2.34 58.76-2.34L58.76-2.34 60.76-2.34Q61.66-2.34 62.46-2.69 63.25-3.03 63.84-3.61 64.42-4.2 64.77-4.99 65.11-5.79 65.11-6.69L65.11-6.69ZM85.95 0L83.22 0Q81.85 0 80.64-0.51 79.44-1.03 78.54-1.93 77.65-2.83 77.13-4.03 76.6-5.22 76.6-6.59L76.6-6.59 76.6-22.14 72.11-22.14 72.11-25 76.6-25 76.6-31.01 79.61-31.49 79.61-25 85.95-25 85.95-22.14 79.61-22.14 79.61-6.45Q79.61-5.69 79.89-5.04 80.17-4.39 80.66-3.91 81.14-3.42 81.8-3.14 82.46-2.86 83.22-2.86L83.22-2.86 85.95-2.86 85.95 0ZM103.31 0L100.58 0Q99.21 0 98-0.51 96.79-1.03 95.9-1.93 95.01-2.83 94.48-4.03 93.96-5.22 93.96-6.59L93.96-6.59 93.96-22.14 89.47-22.14 89.47-25 93.96-25 93.96-31.01 96.96-31.49 96.96-25 103.31-25 103.31-22.14 96.96-22.14 96.96-6.45Q96.96-5.69 97.24-5.04 97.52-4.39 98.01-3.91 98.5-3.42 99.16-3.14 99.82-2.86 100.58-2.86L100.58-2.86 103.31-2.86 103.31 0ZM141.03 0L121.32 0 121.32-35.01 141.03-35.01 141.03-32.01 124.47-32.01 124.47-18.99 137.88-18.99 137.88-15.99 124.47-15.99 124.47-3 141.03-3 141.03 0ZM163.21-6.35L163.21-6.35Q163.21-4.83 162.6-3.58 161.99-2.32 160.94-1.42 159.89-0.51 158.52-0.01 157.14 0.49 155.62 0.49L155.62 0.49 153.62 0.49Q152.11 0.49 150.73-0.09 149.35-0.66 148.31-1.66 147.27-2.66 146.65-4 146.03-5.35 146.03-6.86L146.03-6.86 146.03-7.86 149.03-8.35 149.03-6.69Q149.03-5.79 149.41-4.99 149.79-4.2 150.42-3.61 151.06-3.03 151.89-2.69 152.72-2.34 153.62-2.34L153.62-2.34 155.62-2.34Q156.53-2.34 157.36-2.61 158.19-2.88 158.83-3.38 159.48-3.88 159.86-4.59 160.24-5.3 160.24-6.2L160.24-6.2Q160.24-7.54 159.65-8.4 159.06-9.25 158.1-9.83 157.14-10.4 155.9-10.78 154.67-11.16 153.38-11.54 152.08-11.91 150.85-12.4 149.62-12.89 148.65-13.68 147.69-14.48 147.1-15.67 146.52-16.87 146.52-18.65L146.52-18.65Q146.52-20.17 147.1-21.42 147.69-22.68 148.69-23.58 149.69-24.49 151.02-24.99 152.35-25.49 153.86-25.49L153.86-25.49 155.62-25.49Q157.14-25.49 158.48-24.91 159.82-24.34 160.82-23.34 161.82-22.34 162.4-21 162.97-19.65 162.97-18.14L162.97-18.14 162.97-18.04 159.97-17.55 159.97-18.31Q159.97-19.21 159.63-20.01 159.28-20.8 158.7-21.39 158.11-21.97 157.32-22.31 156.53-22.66 155.62-22.66L155.62-22.66 153.86-22.66Q152.96-22.66 152.17-22.39 151.37-22.12 150.79-21.62 150.2-21.12 149.86-20.41 149.52-19.7 149.52-18.8L149.52-18.8Q149.52-17.5 150.1-16.69 150.69-15.87 151.65-15.31 152.62-14.75 153.85-14.37 155.09-13.99 156.37-13.59 157.65-13.18 158.88-12.67 160.11-12.16 161.08-11.35 162.04-10.55 162.63-9.34 163.21-8.13 163.21-6.35ZM180.81 0L178.08 0Q176.71 0 175.5-0.51 174.3-1.03 173.41-1.93 172.51-2.83 171.99-4.03 171.46-5.22 171.46-6.59L171.46-6.59 171.46-22.14 166.97-22.14 166.97-25 171.46-25 171.46-31.01 174.47-31.49 174.47-25 180.81-25 180.81-22.14 174.47-22.14 174.47-6.45Q174.47-5.69 174.75-5.04 175.03-4.39 175.52-3.91 176.01-3.42 176.66-3.14 177.32-2.86 178.08-2.86L178.08-2.86 180.81-2.86 180.81 0ZM203.03 0L202.03 0 200.37-2.49Q199.34-1.15 197.8-0.33 196.27 0.49 194.44 0.49L194.44 0.49 193.68 0.49Q192.17 0.49 190.82-0.09 189.48-0.66 188.48-1.66 187.48-2.66 186.9-4 186.33-5.35 186.33-6.86L186.33-6.86 186.33-7.1Q186.33-8.62 186.9-9.96 187.48-11.3 188.48-12.3 189.48-13.31 190.82-13.88 192.17-14.45 193.68-14.45L193.68-14.45 200.03-14.45 200.03-18.31Q200.03-19.21 199.68-20.01 199.34-20.8 198.76-21.39 198.17-21.97 197.38-22.31 196.58-22.66 195.68-22.66L195.68-22.66 193.92-22.66Q193.02-22.66 192.23-22.31 191.43-21.97 190.85-21.39 190.26-20.8 189.92-20.01 189.58-19.21 189.58-18.31L189.58-18.31 189.58-17.41 186.57-17.9 186.57-18.14Q186.57-19.65 187.15-21 187.72-22.34 188.72-23.34 189.72-24.34 191.07-24.91 192.41-25.49 193.92-25.49L193.92-25.49 195.68-25.49Q197.19-25.49 198.54-24.91 199.88-24.34 200.88-23.34 201.88-22.34 202.46-21 203.03-19.65 203.03-18.14L203.03-18.14 203.03 0ZM200.03-6.69L200.03-12.11 193.68-12.11Q192.78-12.11 191.98-11.77 191.19-11.43 190.6-10.83 190.02-10.23 189.67-9.44 189.33-8.64 189.33-7.74L189.33-7.74 189.33-6.69Q189.33-5.79 189.67-4.99 190.02-4.2 190.6-3.61 191.19-3.03 191.98-2.69 192.78-2.34 193.68-2.34L193.68-2.34 195.68-2.34Q196.58-2.34 197.38-2.69 198.17-3.03 198.76-3.61 199.34-4.2 199.68-4.99 200.03-5.79 200.03-6.69L200.03-6.69ZM220.87 0L218.14 0Q216.77 0 215.56-0.51 214.35-1.03 213.46-1.93 212.57-2.83 212.05-4.03 211.52-5.22 211.52-6.59L211.52-6.59 211.52-22.14 207.03-22.14 207.03-25 211.52-25 211.52-31.01 214.53-31.49 214.53-25 220.87-25 220.87-22.14 214.53-22.14 214.53-6.45Q214.53-5.69 214.81-5.04 215.09-4.39 215.58-3.91 216.06-3.42 216.72-3.14 217.38-2.86 218.14-2.86L218.14-2.86 220.87-2.86 220.87 0ZM243.09-6.86L243.09-6.86Q243.09-5.35 242.51-4 241.94-2.66 240.94-1.66 239.94-0.66 238.6-0.09 237.25 0.49 235.74 0.49L235.74 0.49 233.74 0.49Q232.22 0.49 230.88-0.09 229.54-0.66 228.54-1.66 227.54-2.66 226.96-4 226.39-5.35 226.39-6.86L226.39-6.86 226.39-18.14Q226.39-19.65 226.96-21 227.54-22.34 228.54-23.34 229.54-24.34 230.88-24.91 232.22-25.49 233.74-25.49L233.74-25.49 235.74-25.49Q237.25-25.49 238.6-24.91 239.94-24.34 240.94-23.34 241.94-22.34 242.51-21 243.09-19.65 243.09-18.14L243.09-18.14 243.09-12.26 229.39-12.26 229.39-6.69Q229.39-5.79 229.73-4.99 230.08-4.2 230.66-3.61 231.25-3.03 232.04-2.69 232.83-2.34 233.74-2.34L233.74-2.34 235.74-2.34Q236.64-2.34 237.44-2.69 238.23-3.03 238.82-3.61 239.4-4.2 239.74-4.99 240.08-5.79 240.08-6.69L240.08-6.69 240.08-8.35 243.09-7.86 243.09-6.86ZM240.08-14.6L240.08-18.31Q240.08-19.21 239.74-20.01 239.4-20.8 238.82-21.39 238.23-21.97 237.44-22.31 236.64-22.66 235.74-22.66L235.74-22.66 233.74-22.66Q232.83-22.66 232.04-22.31 231.25-21.97 230.66-21.39 230.08-20.8 229.73-20.01 229.39-19.21 229.39-18.31L229.39-18.31 229.39-14.6 240.08-14.6Z" opacity="1" transform="matrix(1,0,0,1,0,0)" fill="#ffffff" class="wordmark-text-0" data-fill-palette-color="quaternary" id="text-0"></path></svg></g></svg></g></svg></g></svg></g><g transform="matrix(1,0,0,1,79.10201503754188,0)"><svg viewBox="0 0 54.95441115207337 43.73356547255502" height="43.73356547255502" width="54.95441115207337"><g><svg xmlns="http://www.w3.org/2000/svg" xmlns:xlink="http://www.w3.org/1999/xlink" version="1.1" x="0" y="0" viewBox="13.717255423576438 25.39 117.33374675239375 93.37599999999999" enable-background="new 0 0 144.083 144" xml:space="preserve" height="43.73356547255502" width="54.95441115207337" class="icon-icon-0" data-fill-palette-color="quaternary" id="icon-0"><rect x="40.601" y="93.884" width="3" height="11.723" fill="#ffffff" data-fill-palette-color="quaternary"></rect><rect x="29.601" y="93.884" width="3" height="11.723" fill="#ffffff" data-fill-palette-color="quaternary"></rect><rect x="111.288" y="93.884" width="3" height="11.723" fill="#ffffff" data-fill-palette-color="quaternary"></rect><rect x="100.288" y="93.884" width="3" height="11.723" fill="#ffffff" data-fill-palette-color="quaternary"></rect><path d="M131.008 82.889l-10.002-40.91c-0.164-0.671-0.766-1.144-1.457-1.144H49.134V26.89c0-0.828-0.672-1.5-1.5-1.5h-14c-0.828 0-1.5 0.672-1.5 1.5v13.945h-6.916c-0.691 0-1.293 0.473-1.457 1.144L13.76 82.889c-0.109 0.447-0.007 0.92 0.277 1.282s0.719 0.574 1.18 0.574h3.233v32.521c0 0.828 0.672 1.5 1.5 1.5h33.275 9.746 18.824 9.746 33.275c0.828 0 1.5-0.672 1.5-1.5V84.745h3.234c0.461 0 0.895-0.212 1.18-0.574C131.014 83.809 131.118 83.336 131.008 82.889zM118.372 43.835l1.725 7.054H79.221l-5.488-6.52c-0.283-0.337-0.701-0.532-1.141-0.534H118.372zM35.134 28.39h11v12.445h-11V28.39zM26.396 43.835h46.189c-0.436 0-0.852 0.19-1.137 0.522l-5.615 6.531H24.671L26.396 43.835zM51.726 115.767H21.45V84.745h30.275V115.767zM52.088 66.877c-0.233 0.271-0.362 0.619-0.362 0.978v13.891H17.128l6.81-27.856h39.316L52.088 66.877zM90.042 115.767H54.726V68.41l17.847-20.761 17.469 20.752V115.767zM123.317 115.767H93.042V84.745h30.275V115.767zM93.042 81.745V67.854c0-0.354-0.125-0.695-0.352-0.966l-10.943-13h39.084l6.809 27.856H93.042z" fill="#ffffff" data-fill-palette-color="quaternary"></path><path d="M63.066 86.291v13.454c0 0.828 0.672 1.5 1.5 1.5h15.635c0.828 0 1.5-0.672 1.5-1.5V86.291c0-5.137-4.18-9.316-9.317-9.316C67.247 76.975 63.066 81.154 63.066 86.291zM78.702 86.291v11.954H66.066V86.291c0-3.482 2.834-6.316 6.318-6.316C75.868 79.975 78.702 82.809 78.702 86.291z" fill="#ffffff" data-fill-palette-color="quaternary"></path></svg></g></svg></g><g></g></svg></g></svg></g></svg></g></svg></g><defs></defs></svg><rect width="342.85155851775386" height="342.85155851775386" fill="none" stroke="none" visibility="hidden"></rect></g></svg></g></svg>